<svg xmlns="http://www.w3.org/2000/svg" viewBox="0 0 50 50"><path d="M25 39c13.036 0 23.352-12.833 23.784-13.379l.491-.621-.491-.621C48.352 23.833 38.036 11 25 11S1.648 23.833 1.216 24.379L.725 25l.491.621C1.648 26.167 11.964 39 25 39zm0-26c10.494 0 19.47 9.46 21.69 12C44.473 27.542 35.509 37 25 37 14.506 37 5.53 27.54 3.31 25 5.527 22.458 14.491 13 25 13z"/><path d="M25 34c4.963 0 9-4.038 9-9s-4.037-9-9-9-9 4.038-9 9 4.037 9 9 9zm0-16c3.859 0 7 3.14 7 7s-3.141 7-7 7-7-3.14-7-7 3.141-7 7-7z"/></svg>