<svg width="19" height="19" viewBox="0 0 19 19" fill="none" xmlns="http://www.w3.org/2000/svg">
<rect width="19" height="19" fill="#E5E5E5"/>
<g clip-path="url(#clip0_0_1)">
<rect width="1440" height="3497" transform="translate(-121 -43)" fill="white"/>
<rect x="-121" y="-41" width="1440" height="120" fill="white"/>
<g clip-path="url(#clip1_0_1)">
<path d="M9.49681 5.53998C7.31631 5.53998 5.53686 7.31946 5.53686 9.5C5.53686 11.6805 7.31631 13.46 9.49681 13.46C11.6773 13.46 13.4568 11.6805 13.4568 9.5C13.4568 7.31946 11.6773 5.53998 9.49681 5.53998ZM21.3737 9.5C21.3737 7.86014 21.3885 6.23514 21.2964 4.59825C21.2043 2.69697 20.7706 1.00958 19.3803 -0.380738C17.9871 -1.77402 16.3027 -2.20478 14.4014 -2.29688C12.7616 -2.38897 11.1366 -2.37412 9.49978 -2.37412C7.85995 -2.37412 6.23498 -2.38897 4.59812 -2.29688C2.69687 -2.20478 1.00951 -1.77105 -0.380775 -0.380738C-1.77403 1.01255 -2.20479 2.69697 -2.29688 4.59825C-2.38897 6.23811 -2.37412 7.86311 -2.37412 9.5C-2.37412 11.1369 -2.38897 12.7649 -2.29688 14.4017C-2.20479 16.303 -1.77106 17.9904 -0.380775 19.3807C1.01248 20.774 2.69687 21.2048 4.59812 21.2969C6.23795 21.389 7.86292 21.3741 9.49978 21.3741C11.1396 21.3741 12.7646 21.389 14.4014 21.2969C16.3027 21.2048 17.99 20.7711 19.3803 19.3807C20.7736 17.9875 21.2043 16.303 21.2964 14.4017C21.3915 12.7649 21.3737 11.1399 21.3737 9.5ZM9.49681 15.593C6.12506 15.593 3.4039 12.8718 3.4039 9.5C3.4039 6.12819 6.12506 3.40698 9.49681 3.40698C12.8686 3.40698 15.5897 6.12819 15.5897 9.5C15.5897 12.8718 12.8686 15.593 9.49681 15.593ZM15.8393 4.58043C15.052 4.58043 14.4163 3.94468 14.4163 3.15743C14.4163 2.37018 15.052 1.73444 15.8393 1.73444C16.6265 1.73444 17.2622 2.37018 17.2622 3.15743C17.2625 3.34437 17.2258 3.52951 17.1544 3.70227C17.083 3.87502 16.9781 4.03198 16.846 4.16416C16.7138 4.29635 16.5568 4.40116 16.3841 4.47259C16.2113 4.54401 16.0262 4.58066 15.8393 4.58043Z" fill="#111111"/>
</g>
</g>
<defs>
<clipPath id="clip0_0_1">
<rect width="1440" height="3497" fill="white" transform="translate(-121 -43)"/>
</clipPath>
<clipPath id="clip1_0_1">
<rect width="19" height="19" fill="white"/>
</clipPath>
</defs>
</svg>
